inDegrees=no
num_controls=7
num_derivatives=13
num_iterations=152
num_multipliers=7
num_parameters=0
num_slacks=7
num_states=26
objective=0.475632
objective_accelerations=0.012149
objective_balance=0.000598
objective_effort=0.012312
objective_height=0.443880
objective_ligament=0.006693
solver_duration=1756.449595
status=Solve_Succeeded
success=true
DataType=double
version=3
OpenSimVersion=4.5
endheader
time	/jointset/ground_pelvis/pelvis_tilt/value	/jointset/ground_pelvis/pelvis_tx/value	/jointset/ground_pelvis/pelvis_ty/value	/jointset/hip_r/hip_flexion_r/value	/jointset/hip_r/hip_adduction_r/value	/jointset/hip_r/hip_rotation_r/value	/jointset/back/lumbar_extension/value	/jointset/patellofemoral_r/patellar_flexion_r/value	/jointset/knee_r/knee_flexion_r/value	/jointset/knee_r/knee_adduction_r/value	/jointset/knee_r/knee_rotation_r/value	/jointset/ankle_r/ankle_angle_r/value	/jointset/subtalar_r/subtalar_angle_r/value	/jointset/ground_pelvis/pelvis_tilt/speed	/jointset/ground_pelvis/pelvis_tx/speed	/jointset/ground_pelvis/pelvis_ty/speed	/jointset/hip_r/hip_flexion_r/speed	/jointset/hip_r/hip_adduction_r/speed	/jointset/hip_r/hip_rotation_r/speed	/jointset/back/lumbar_extension/speed	/jointset/patellofemoral_r/patellar_flexion_r/speed	/jointset/knee_r/knee_flexion_r/speed	/jointset/knee_r/knee_adduction_r/speed	/jointset/knee_r/knee_rotation_r/speed	/jointset/ankle_r/ankle_angle_r/speed	/jointset/subtalar_r/subtalar_angle_r/speed	/forceset/tau_hip_flexion_r	/forceset/tau_hip_adduction_r	/forceset/tau_hip_rotation_r	/forceset/tau_knee_flexion_r	/forceset/tau_ankle_angle_r	/forceset/tau_subtalar_angle_r	/forceset/tau_lumbar_extension	lambda_cid13_p0	lambda_cid14_p0	lambda_cid14_p1	lambda_cid14_p2	lambda_cid14_p3	lambda_cid14_p4	lambda_cid14_p5	/jointset/ground_pelvis/pelvis_tilt/accel	/jointset/ground_pelvis/pelvis_tx/accel	/jointset/ground_pelvis/pelvis_ty/accel	/jointset/hip_r/hip_flexion_r/accel	/jointset/hip_r/hip_adduction_r/accel	/jointset/hip_r/hip_rotation_r/accel	/jointset/back/lumbar_extension/accel	/jointset/patellofemoral_r/patellar_flexion_r/accel	/jointset/knee_r/knee_flexion_r/accel	/jointset/knee_r/knee_adduction_r/accel	/jointset/knee_r/knee_rotation_r/accel	/jointset/ankle_r/ankle_angle_r/accel	/jointset/subtalar_r/subtalar_angle_r/accel	gamma_cid13_p0	gamma_cid14_p0	gamma_cid14_p1	gamma_cid14_p2	gamma_cid14_p3	gamma_cid14_p4	gamma_cid14_p5
1.5	0.1193186211403174	0.1141294841540847	0.9276029241921523	0.1762731500535461	-0.2158551535861136	-0.2157690887181854	-0.5454606845858007	0.408439720340633	0.4084397203406392	0.05729699479408409	0.1745291999732999	0.1778706985229072	0.1072720552739756	-0.09829657740447274	0.07122532218649025	0.05371865264258194	-0.2870200679764404	-0.002790713609628718	-0.09587428102146012	0.7919970949280418	-0.5542199513421995	-0.5542199513422076	0.1498878941520757	2.937091688028378e-05	-0.2089752438393462	-0.0735663197223549	-0.01754500837190634	-0.002446502607475005	0.005640618838374894	-0.1942863252559605	-0.01486207174687309	-0.02208206714373918	0.1184634899167566	-29.92543400819175	-49.64811436857758	-13.0117724197863	-3.524948635645786	4.822657778176662	-656.8119772612839	58.91770488556254	-0.1420930812624952	0.005383660498053972	-0.05418787880614519	0.009830723485821933	-0.01490760870976571	-0.1173204753460737	0.4455165541543312	-0.2705827338962962	-0.2705827338962969	0.1172598476944236	-0.004784426711016963	-0.1736107875468371	-0.05461837614559101	1.676071397156062e-08	6.790163242799527e-09	-1.299156036732071e-07	1.076066245739168e-07	1.018429244211783e-08	1.617646542044024e-08	-1.38520238083288e-07
1.51	0.1183287244752144	0.1148419008340866	0.9281373154960839	0.1734037043895654	-0.2158840351550538	-0.216733633191967	-0.537519415351977	0.4028846870918428	0.4028846870918563	0.05880206465050818	0.1745294989320321	0.1757724373225416	0.106533418238118	-0.09966458492941399	0.07124685116652915	0.05315147574418502	-0.2868359790852495	-0.00298579508926044	-0.09702418230700137	0.7961576501026832	-0.5567142905230076	-0.5567142905230071	0.1511093575296954	2.97247075082983e-05	-0.2106514704238742	-0.07415198374042149	-0.01466439348101555	-0.003469570267658216	0.005487646729257688	-0.1944543857051866	-0.01243805622372956	-0.02265859323241711	0.1153564963258592	-29.9795480753999	-48.87587219202159	-13.13188921579723	-3.500149714533121	4.639549050537444	-656.206421811956	58.97089497638917	-0.1314283368446454	-0.0011349347647987	-0.05919845282624344	0.02766157663757977	-0.02183269834025365	-0.1122387951290676	0.3864597390274612	-0.2280017346156089	-0.228001734614304	0.1220711021560504	0.002360289626073638	-0.1607962715414754	-0.05918222940805674	1.69462731883953e-08	7.253958279646096e-09	-1.311099388696606e-07	1.105178489590133e-07	9.883175214497044e-09	1.870811908641646e-08	-1.414909223691277e-07
1.52	0.1173256929851158	0.1155541983135846	0.9286657918595375	0.1705370923354375	-0.2159148723949403	-0.2177093594465982	-0.5295395136184249	0.3973068820063564	0.3973068820063759	0.06031884544458011	0.1745297844302053	0.1736581803208037	0.1057891961991256	-0.1009235424037451	0.07120148208571092	0.05253566454699513	-0.2864533460059836	-0.003181847798906547	-0.09811063719137925	0.79972359487366	-0.5587743186815171	-0.5587743186815077	0.1522300816817276	2.667880519088042e-05	-0.2121744041138301	-0.07468332034932283	-0.01178377859012517	-0.004492637927843614	0.005334674620140345	-0.1946224461544128	-0.01001404070058683	-0.02323511932109826	0.1122495027349621	-30.03000980936562	-48.10480751964704	-13.25068332897516	-3.47730806324405	4.454208284127355	-655.6224728818185	59.04350685079608	-0.1202830711404484	-0.007995951673386783	-0.06391473856473757	0.04953956110086848	-0.01510185471264106	-0.1046311951133969	0.3265944734214169	-0.1837205294365235	-0.1837205294365236	0.09711200257691659	-0.005464365300105813	-0.1429522086324318	-0.04375289431254246	1.762135867104268e-08	7.798099075654632e-09	-1.371091875335941e-07	1.13713545096679e-07	9.995666211365553e-09	2.135689256528034e-08	-1.467241378961488e-07
1.53	0.1163106447810573	0.1162657161236548	0.9291878783977592	0.1676752441518725	-0.2159476757522595	-0.218695678691305	-0.5215270048273966	0.3917106270871452	0.3917106270871732	0.06184632295037071	0.1745300655568525	0.1715294655803948	0.1050399332554547	-0.1020682184745984	0.07109156589140167	0.05187399412800619	-0.2858821881974468	-0.003378435514567886	-0.09914120128777544	0.8026740136527257	-0.5604015286446565	-0.5604015286446556	0.1532467535326989	2.80009195086542e-05	-0.2135404087605041	-0.07515875395876298	-0.008780557216899795	-0.005617090025233373	0.005180711332025606	-0.1950277492910347	-0.007258352466989326	-0.02388963010812001	0.1090562671773993	-30.07680394506739	-47.23339942867867	-13.39280396361965	-3.44272072178718	4.200688083990491	-655.0573445590811	59.10289109781177	-0.1088772941797954	-0.01406439026011632	-0.06843541601588654	0.06602001151058523	-0.02187563490871902	-0.1004440516519143	0.2636431282712823	-0.1409546436200352	-0.1409546436213104	0.1011315699768387	0.002719439922883719	-0.1292001212495519	-0.0478715092964795	1.881656581111605e-08	8.427607240772755e-09	-1.482136567567251e-07	1.172114924714495e-07	1.054761594675393e-08	2.413010584533734e-08	-1.543612928669251e-07
